<svg width="65" height="52" viewBox="0 0 65 52" fill="none" xmlns="http://www.w3.org/2000/svg">
<path d="M27.445 0C27.2983 1.28333 27.1883 2.53 27.115 3.74C27.0783 4.95 27.06 5.86666 27.06 6.49C27.06 7.15 27.0783 7.79167 27.115 8.415C27.1517 9.00167 27.1883 9.49667 27.225 9.9H25.96C25.74 7.73667 25.4283 6.03167 25.025 4.785C24.6217 3.50167 23.925 2.60333 22.935 2.09C21.9817 1.54 20.5333 1.265 18.59 1.265H14.025C12.7783 1.265 11.825 1.375 11.165 1.595C10.5417 1.77833 10.12 2.2 9.9 2.86C9.68 3.48333 9.57 4.47333 9.57 5.83V33.11C9.57 34.43 9.68 35.42 9.9 36.08C10.12 36.74 10.5417 37.18 11.165 37.4C11.825 37.5833 12.7783 37.675 14.025 37.675H18.04C20.35 37.675 22.0917 37.3633 23.265 36.74C24.475 36.1167 25.3367 35.1083 25.85 33.715C26.4 32.285 26.8033 30.36 27.06 27.94H28.325C28.215 28.93 28.16 30.25 28.16 31.9C28.16 32.5967 28.1783 33.605 28.215 34.925C28.2883 36.2083 28.3983 37.5467 28.545 38.94C26.675 38.8667 24.5667 38.83 22.22 38.83C19.8733 38.7933 17.7833 38.775 15.95 38.775C15.1433 38.775 14.0983 38.775 12.815 38.775C11.5683 38.775 10.2117 38.7933 8.745 38.83C7.27833 38.83 5.79333 38.8483 4.29 38.885C2.78667 38.885 1.35667 38.9033 0 38.94V37.84C1.24667 37.7667 2.18167 37.62 2.805 37.4C3.465 37.18 3.905 36.74 4.125 36.08C4.345 35.42 4.455 34.43 4.455 33.11V5.83C4.455 4.47333 4.345 3.48333 4.125 2.86C3.905 2.2 3.465 1.76 2.805 1.54C2.18167 1.28333 1.24667 1.13666 0 1.1V0C1.35667 0.0366662 2.78667 0.0733325 4.29 0.109999C5.79333 0.109999 7.27833 0.128333 8.745 0.164999C10.2117 0.164999 11.5683 0.164999 12.815 0.164999C14.0983 0.164999 15.1433 0.164999 15.95 0.164999C17.6367 0.164999 19.5433 0.164999 21.67 0.164999C23.8333 0.128333 25.7583 0.0733324 27.445 0ZM17.985 18.81C17.985 18.81 17.985 18.9933 17.985 19.36C17.985 19.7267 17.985 19.91 17.985 19.91H7.92C7.92 19.91 7.92 19.7267 7.92 19.36C7.92 18.9933 7.92 18.81 7.92 18.81H17.985ZM19.58 11.55C19.4333 13.64 19.36 15.235 19.36 16.335C19.3967 17.435 19.415 18.4433 19.415 19.36C19.415 20.2767 19.4333 21.285 19.47 22.385C19.5067 23.485 19.5983 25.08 19.745 27.17H18.48C18.3333 25.9967 18.15 24.86 17.93 23.76C17.7467 22.6233 17.3067 21.7067 16.61 21.01C15.95 20.2767 14.8133 19.91 13.2 19.91V18.81C14.41 18.81 15.3267 18.5717 15.95 18.095C16.61 17.5817 17.0867 16.94 17.38 16.17C17.6733 15.4 17.875 14.6117 17.985 13.805C18.095 12.9617 18.205 12.21 18.315 11.55H19.58Z" fill="url(#paint0_linear_320_3)"/>
<path d="M31 12C31.77 12.0367 32.7783 12.0733 34.025 12.11C35.2717 12.1467 36.5 12.165 37.71 12.165C39.4333 12.165 41.0833 12.1467 42.66 12.11C44.2367 12.0733 45.355 12.055 46.015 12.055C48.985 12.055 51.4417 12.4767 53.385 13.32C55.365 14.1633 56.8317 15.3183 57.785 16.785C58.775 18.215 59.27 19.8283 59.27 21.625C59.27 22.725 59.05 23.8983 58.61 25.145C58.17 26.3917 57.4 27.565 56.3 28.665C55.2367 29.765 53.77 30.6817 51.9 31.415C50.03 32.1117 47.665 32.46 44.805 32.46H39.525V31.36H44.255C46.8583 31.36 48.8383 30.9567 50.195 30.15C51.5883 29.3067 52.5233 28.2067 53 26.85C53.5133 25.4567 53.77 23.9167 53.77 22.23C53.77 19.3333 53.0733 17.0967 51.68 15.52C50.3233 13.9067 47.9767 13.1 44.64 13.1C42.9533 13.1 41.8533 13.4117 41.34 14.035C40.8267 14.6583 40.57 15.9233 40.57 17.83V45.11C40.57 46.43 40.68 47.42 40.9 48.08C41.12 48.74 41.5417 49.18 42.165 49.4C42.825 49.62 43.7783 49.7667 45.025 49.84V50.94C44.1817 50.8667 43.1183 50.83 41.835 50.83C40.5883 50.7933 39.3233 50.775 38.04 50.775C36.61 50.775 35.2717 50.7933 34.025 50.83C32.7783 50.83 31.77 50.8667 31 50.94V49.84C32.2467 49.7667 33.1817 49.62 33.805 49.4C34.465 49.18 34.905 48.74 35.125 48.08C35.345 47.42 35.455 46.43 35.455 45.11V17.83C35.455 16.4733 35.345 15.4833 35.125 14.86C34.905 14.2 34.465 13.76 33.805 13.54C33.1817 13.2833 32.2467 13.1367 31 13.1V12ZM39.745 31.525C41.725 31.5983 43.2833 31.69 44.42 31.8C45.5567 31.8733 46.4733 31.9467 47.17 32.02C47.9033 32.0933 48.6 32.185 49.26 32.295C51.7167 32.6983 53.4767 33.45 54.54 34.55C55.64 35.6133 56.4467 37.2817 56.96 39.555L58.335 45.165C58.7017 46.7783 59.0683 47.9517 59.435 48.685C59.8383 49.3817 60.4433 49.7117 61.25 49.675C61.8733 49.6383 62.3867 49.4367 62.79 49.07C63.23 48.7033 63.6883 48.2083 64.165 47.585L64.99 48.19C64.22 49.3267 63.4133 50.2067 62.57 50.83C61.7633 51.4167 60.6083 51.71 59.105 51.71C57.7483 51.71 56.5567 51.3067 55.53 50.5C54.5033 49.6933 53.7333 48.1167 53.22 45.77L52.01 40.27C51.68 38.6933 51.295 37.3367 50.855 36.2C50.4517 35.0267 49.865 34.11 49.095 33.45C48.3617 32.79 47.2617 32.46 45.795 32.46H39.855L39.745 31.525Z" fill="url(#paint1_linear_320_3)"/>
<defs>
<linearGradient id="paint0_linear_320_3" x1="-34.1182" y1="8.29507" x2="15.2274" y2="74.8989" gradientUnits="userSpaceOnUse">
<stop offset="0.278412" stop-color="#F2E4E4"/>
<stop offset="0.930569" stop-opacity="0"/>
</linearGradient>
<linearGradient id="paint1_linear_320_3" x1="56.19" y1="-8.06" x2="14.9482" y2="33.2064" gradientUnits="userSpaceOnUse">
<stop offset="0.347766" stop-color="#8B4513"/>
<stop offset="0.658048" stop-color="#DEB887"/>
<stop offset="0.901005" stop-color="#FFE4C4"/>
</linearGradient>
</defs>
</svg>
